<svg version="1.2" xmlns="http://www.w3.org/2000/svg" viewBox="0 0 500 450" width="500" height="450">
  <title>react-logo</title>
  <style>
    .s0 {
      fill: #000000
    }
  </style>
  <g id="Layer">
    <path id="Layer" fill-rule="evenodd" class="s0"
      d="m398.8 307.8c14.5 63.4 8.2 113.9-19.9 130.1-6.6 3.8-14.2 5.6-22.6 5.6-27.5 0-63.5-19.4-99.9-53.2-36.4 34-72.4 53.6-99.9 53.6-8.4 0-16-1.8-22.5-5.6-28.2-16.2-34.6-66.8-20.2-130.4-62.4-19.1-103.1-49.9-103.1-82.4 0-32.4 40.5-63.1 102.7-82.3-14.5-63.4-8.2-113.9 19.9-130.1 6.6-3.8 14.2-5.6 22.6-5.6v-0.1c27.5 0 63.5 19.4 99.9 53.2 36.4-34 72.4-53.6 99.9-53.6v0.1c8.3 0 15.8 1.8 22.3 5.6 28.2 16.2 34.6 66.8 20.2 130.4 62.4 19.1 103.1 49.9 103.1 82.4 0 32.4-40.5 63.2-102.5 82.3zm-43.2-300.7v22.2q0.1 0 0.1 0v-22.2q0 0-0.1 0zm0 22.2c-20.8 0.1-51.4 16.6-83.9 46.9 14.1 14.7 28.1 31.5 41.6 50 22.5 2.4 43.9 6.1 63.5 10.9 2.2-10.1 4-20 5.1-29.4 4.6-38.2-1.3-67.9-14.9-75.7-3.1-1.7-6.8-2.6-11.4-2.6zm-199.7 0.4v0.1c-4.6 0-8.5 0.8-11.5 2.6-13.5 7.9-19.3 37.6-14.6 75.8 1.2 9.3 2.9 19 5.2 29 19.6-4.9 41-8.6 63.6-11 13.3-18.5 27.3-35.2 41.3-49.9-32.6-30.1-63.3-46.6-84-46.6zm174.2 121.2c4.9 7.6 9.8 15.4 14.4 23.4 4.7 8 9 16 13.1 24 5.2-13.3 9.8-26.6 13.5-39.5-13.1-3.2-26.8-5.8-41-7.9zm15.9 74.5c-6.3-13.4-13.2-26.7-20.8-39.8-7.8-13.4-15.9-26.1-24.2-38-14.8-1.2-29.9-1.9-45-1.9-15.2 0-30.3 0.7-45.2 2-8.3 11.9-16.3 24.7-24.1 38.2-7.5 13.1-14.5 26.5-20.7 39.9 6.3 13.4 13.2 26.7 20.8 39.8 7.8 13.4 15.9 26.1 24.2 38 14.8 1.2 29.9 1.9 45 1.9 15.2 0 30.3-0.7 45.2-2 8.3-11.9 16.3-24.7 24.1-38.2 7.5-13.1 14.4-26.5 20.7-39.9zm-1.4 51c-4.6 8.1-9.5 16-14.4 23.7 14.3-2.1 28.1-4.8 41.2-8-3.8-13-8.4-26.4-13.8-39.8-4.1 8-8.4 16.1-13 24.1zm-60.9 50.6c-9.1 0.5-18.4 0.7-27.8 0.7-9.3 0-18.5-0.3-27.5-0.7 9.2 11.7 18.5 22.4 27.8 32 9.2-9.6 18.5-20.3 27.5-32zm-116.3-50.3c-4.7-8-9-16-13.1-24-5.2 13.3-9.8 26.6-13.5 39.5 13.1 3.2 26.8 5.8 41 7.9q-7.3-11.4-14.4-23.4zm60.8-152.7c9.1-0.5 18.4-0.7 27.8-0.7 9.3 0 18.5 0.3 27.5 0.7-9.2-11.7-18.5-22.4-27.8-32-9.2 9.6-18.5 20.3-27.5 32zm-87.7 34.8c3.8 13 8.4 26.4 13.8 39.8 4.1-8 8.4-16 13-24 4.6-8.1 9.5-16 14.4-23.7-14.3 2.1-28.1 4.8-41.2 7.9zm-21.3 127.5c5.6-19.5 13-39.8 22.2-60.6-9.3-20.9-16.8-41.3-22.5-60.9-9.7 3.1-19.1 6.4-27.7 10.1-35.4 15-58.3 34.9-58.3 50.6 0 15.7 22.9 35.5 58.3 50.6 8.7 3.7 18.1 7.1 28 10.2zm37.1 135.4c20.8 0 51.4-16.6 84-46.9-14.1-14.7-28.1-31.5-41.6-50-22.5-2.4-43.9-6.1-63.5-10.9-2.2 10.1-4 20-5.1 29.4-4.6 38.2 1.3 67.9 14.9 75.7 3 1.7 6.8 2.6 11.3 2.7zm220.7-108c-19.6 4.9-41 8.6-63.6 11-13.3 18.5-27.3 35.2-41.3 49.9 32.6 30.1 63.3 46.6 84 46.6 4.6 0 8.5-0.8 11.5-2.6 13.5-7.9 19.3-37.6 14.6-75.8-1.1-9.3-2.9-19-5.2-29.1zm102.1-88.2c0-15.7-22.9-35.5-58.3-50.6-8.8-3.7-18.2-7.1-28.1-10.2-5.6 19.5-13 39.8-22.2 60.6 9.3 20.9 16.8 41.3 22.5 60.9 9.7-3.1 19.1-6.4 27.7-10.1 35.4-15 58.3-34.9 58.4-50.6z" />
    <path id="Layer" class="s0"
      d="m255.9 271.2c-25.3 0-45.7-20.4-45.7-45.7 0-25.3 20.4-45.7 45.7-45.7 25.3 0 45.7 20.4 45.7 45.7 0 25.3-20.4 45.7-45.7 45.7z" />
  </g>
</svg>
